<?xml version="1.0" encoding="utf-8"?>
<!-- Generator: Adobe Illustrator 16.0.0, SVG Export Plug-In . SVG Version: 6.00 Build 0)  -->
<!DOCTYPE svg PUBLIC "-//W3C//DTD SVG 1.1//EN" "http://www.w3.org/Graphics/SVG/1.1/DTD/svg11.dtd">
<svg version="1.1" id="Layer_1" xmlns="http://www.w3.org/2000/svg" xmlns:xlink="http://www.w3.org/1999/xlink" x="0px" y="0px"
	 width="512px" height="512px" viewBox="0 0 512 512" enable-background="new 0 0 512 512" xml:space="preserve">
<g id="_x23_231f20ff">
	<path d="M326.503,21.094l0.205,0.142c-5.613,13.636-4.719,28.692-4.211,43.109c0.283,8.093,0.617,16.253-0.617,24.287
		c-1.059,6.918-3.451,13.857-8.105,19.201c-5.795,6.992-14.648,11.324-23.722,11.634c-8.281,0.382-16.67-2.545-22.868-8.057
		c-5.857-5.066-9.754-12.313-10.844-19.974c-1.006-6.805,0.24-13.907,3.449-19.98c4.984-9.282,13.996-15.424,22.936-20.507
		c11.794-6.693,24.441-12.144,34.973-20.842C320.935,27.422,323.993,24.477,326.503,21.094"/>
</g>
<g id="_x23_231f20ff_1_">
	<path d="M440.271,83.099l0.205,0.142c-5.613,13.636-4.719,28.692-4.211,43.109c0.283,8.093,0.617,16.253-0.617,24.287
		c-1.059,6.918-3.451,13.857-8.105,19.201c-5.795,6.992-14.648,11.324-23.722,11.634c-8.281,0.382-16.67-2.545-22.868-8.057
		c-5.857-5.066-9.754-12.313-10.844-19.974c-1.006-6.805,0.24-13.907,3.449-19.98c4.984-9.282,13.996-15.424,22.936-20.507
		c11.794-6.693,24.441-12.144,34.973-20.842C434.703,89.427,437.762,86.482,440.271,83.099"/>
</g>
<path d="M239,140.035c0-4.588,0-8.671,0-12.118c0-0.164,0-0.917,0-0.917c0-10-16-10-16,0c0,4,0,8.18,0,13.042
	c-98,4.338-177.501,82.772-182.736,180.8c13.949-20.926,37.644-34.713,64.679-34.713c25.693,0,48.651,12.454,62.822,31.652
	C179.5,298.381,200,284.526,223,281.041c0,18.179,0,33.606,0,43.29c0,40.237,0,80.475,0,120.712c0,0.163,0,0.327,0,0.492
	c0,0.576-0.168,1.137-0.058,1.679c-1.058,18.444-16.066,33.012-34.767,33.265c-19.229,0.259-34.78-16.007-35.035-34.871
	c-0.149-10.961-17.19-10.975-17.041,0c0.387,28.542,23.459,51.498,51.974,51.883c28.532,0.385,51.069-23.978,51.443-51.883
	c0.009-0.703-0.516-1.383-0.516-2.034c0-36.631,0-73.26,0-109.888c0-11.846,0-31.067,0-53.316c22,1.545,42.452,12.561,55.654,29.073
	c14.26-17.837,36.337-29.268,60.951-29.268c27.979,0,52.301,14.769,66.018,36.933C414.604,220.778,336,144.244,239,140.035z
	 M308.173,216.346c0.283,8.093,0.617,16.253-0.617,24.287c-1.059,6.918-3.451,13.857-8.105,19.201
	c-5.795,6.992-14.648,11.324-23.722,11.635c-8.281,0.381-16.67-2.545-22.868-8.057c-5.857-5.066-9.754-12.314-10.844-19.974
	c-1.006-6.805,0.24-13.907,3.449-19.98c4.984-9.282,13.996-15.424,22.936-20.507c11.794-6.693,24.441-12.144,34.973-20.842
	c3.236-2.686,6.295-5.631,8.805-9.014l0.205,0.142C306.771,186.873,307.665,201.929,308.173,216.346z"/>
</svg>
